<svg width="66" height="66" viewBox="0 0 66 66" fill="none" xmlns="http://www.w3.org/2000/svg">
<circle cx="33" cy="33" r="33" fill="#222222"/>
<path d="M15.408 49.184C15.312 49.184 15.264 49.064 15.264 48.824C15.264 48.704 15.276 48.56 15.3 48.392C15.324 48.224 15.384 48.02 15.48 47.78C15.696 47.156 16.08 46.304 16.632 45.224C17.184 44.168 17.832 42.98 18.576 41.66C19.344 40.316 20.172 38.924 21.06 37.484C21.948 36.044 22.848 34.616 23.76 33.2C24.672 31.784 25.536 30.464 26.352 29.24C27.192 27.992 27.936 26.912 28.584 26C29.232 25.088 29.736 24.416 30.096 23.984C30.504 22.76 30.948 21.788 31.428 21.068C31.908 20.348 32.4 19.988 32.904 19.988C33.288 19.988 33.708 20.072 34.164 20.24C34.62 20.384 35.016 20.576 35.352 20.816C35.688 21.032 35.856 21.272 35.856 21.536C35.856 21.752 35.76 21.92 35.568 22.04C35.016 22.496 34.524 23.18 34.092 24.092C33.684 25.004 33.336 26.06 33.048 27.26C32.76 28.436 32.544 29.696 32.4 31.04C32.256 32.36 32.184 33.668 32.184 34.964C32.184 36.38 32.268 37.724 32.436 38.996C32.604 40.268 32.868 41.336 33.228 42.2C33.516 41.432 33.948 40.484 34.524 39.356C35.1 38.204 35.76 36.956 36.504 35.612C37.248 34.244 38.028 32.864 38.844 31.472C39.66 30.056 40.452 28.712 41.22 27.44C42.012 26.144 42.732 24.992 43.38 23.984C44.052 22.952 44.604 22.136 45.036 21.536C45.492 20.936 45.768 20.636 45.864 20.636C45.936 20.636 46.056 20.624 46.224 20.6C46.416 20.552 46.596 20.528 46.764 20.528C47.124 20.528 47.304 20.624 47.304 20.816C47.304 20.984 47.22 21.164 47.052 21.356C45.828 22.964 44.556 24.74 43.236 26.684C41.916 28.604 40.632 30.56 39.384 32.552C38.16 34.544 37.044 36.44 36.036 38.24C35.028 40.04 34.212 41.624 33.588 42.992L33.696 43.172C34.008 43.7 34.392 44.108 34.848 44.396C35.304 44.708 35.724 44.864 36.108 44.864C36.372 44.864 36.612 44.792 36.828 44.648C36.852 44.648 36.864 44.636 36.864 44.612C36.888 44.612 36.9 44.612 36.9 44.612C36.996 44.612 37.056 44.66 37.08 44.756C37.104 44.876 37.08 44.96 37.008 45.008C36.456 45.392 35.844 45.584 35.172 45.584C34.62 45.584 34.068 45.428 33.516 45.116C32.964 44.804 32.46 44.348 32.004 43.748C30.852 42.188 30.036 40.412 29.556 38.42C29.076 36.428 28.836 34.436 28.836 32.444C28.836 31.364 28.896 30.308 29.016 29.276C29.136 28.244 29.292 27.26 29.484 26.324C28.476 27.692 27.42 29.192 26.316 30.824C25.236 32.432 24.156 34.088 23.076 35.792C21.996 37.496 20.976 39.164 20.016 40.796C19.056 42.404 18.204 43.892 17.46 45.26C16.716 46.628 16.14 47.804 15.732 48.788C15.612 49.052 15.504 49.184 15.408 49.184Z" fill="white"/>
</svg>
