<svg width="66" height="66" viewBox="0 0 66 66" fill="none" xmlns="http://www.w3.org/2000/svg">
<circle cx="33" cy="33" r="33" fill="#222222"/>
<path d="M30.795 53C27.2521 53 24.0483 51.5311 21.1837 48.5932C18.3946 45.58 17 42.3032 17 38.7627C17 36.4275 17.6031 35.2599 18.8092 35.2599C19.563 35.2599 20.3168 35.8248 21.0707 36.9548C23.3321 31.6818 26.5359 25.7307 30.682 19.1017C33.3204 15.0339 36.4111 13 39.9541 13C40.7079 13 41.5936 13.2637 42.6113 13.7909C43.629 14.3183 44.1378 14.9586 44.1378 15.7119C44.1378 16.2392 43.6479 16.5029 42.6679 16.5029C42.5925 16.5029 42.4794 16.5029 42.3287 16.5029C42.1779 16.5029 41.9894 16.4651 41.7633 16.3898H40.8587C39.2003 16.3898 37.7303 16.8795 36.4488 17.8588C35.1673 18.838 34.5265 20.1563 34.5265 21.8135C34.5265 22.4162 34.6396 23.0565 34.8658 23.7345L37.5795 32.774C38.1826 34.5819 38.5972 36.258 38.8233 37.8022C39.0495 39.3465 39.1626 40.7589 39.1626 42.0395C41.1979 41.7382 42.9317 40.9849 44.364 39.7797C45.2685 39.0264 46.4747 37.5198 47.9824 35.2599C48.2085 34.9585 48.4347 34.8079 48.6608 34.8079C48.887 34.8079 49 34.9585 49 35.2599C49 35.3352 48.9247 35.5989 48.7739 36.0508C46.2109 40.3446 43.0448 42.8682 39.2756 43.6215C39.0495 46.258 38.2579 48.4425 36.9011 50.1751C35.4688 52.0583 33.4335 53 30.795 53ZM34.5265 43.5085C34.6019 43.2071 34.6396 42.9435 34.6396 42.7175C34.6396 42.4915 34.6396 42.2278 34.6396 41.9265C34.6396 40.9473 34.47 39.6101 34.1307 37.9153C33.7915 36.2203 33.3204 34.1299 32.7173 31.644C31.5866 26.8983 31.172 23.7345 31.4735 22.1526C29.5136 24.1864 26.3098 29.6102 21.8622 38.4237C23.2945 39.177 24.5194 39.8362 25.5371 40.4011C26.5548 40.9661 27.3651 41.3992 27.9682 41.7006C29.1744 42.2278 30.3239 42.6422 31.417 42.9435C32.51 43.2448 33.5465 43.4331 34.5265 43.5085ZM28.4205 49.2712C31.4358 49.2712 33.4335 47.8023 34.4135 44.8644C28.3828 44.8644 23.7844 43.6215 20.6184 41.1356C20.7691 42.7928 21.6737 44.6007 23.3321 46.5593C25.066 48.3672 26.7621 49.2712 28.4205 49.2712Z" fill="white"/>
</svg>
